<svg width="16" height="20" viewBox="0 0 16 20" fill="none" xmlns="http://www.w3.org/2000/svg">
<path d="M2 2.5V3.75M2 17.5V12.5M2 12.5L3.84673 11.9229C5.23623 11.4887 6.70416 11.6901 7.98522 12.4908L8.05704 12.5356C9.31247 13.3203 10.7482 13.5299 12.1146 13.1281L14.1907 12.5174C14.0647 11.075 14 9.60942 14 8.125C14 6.65285 14.0636 5.19928 14.1876 3.76835L12.1146 4.37807C10.7482 4.77993 9.31247 4.5703 8.05704 3.78565L7.98522 3.74076C6.70416 2.9401 5.23623 2.73868 3.84673 3.1729L2 3.75M2 12.5V3.75" stroke="#0F172A" stroke-width="1.5" stroke-linecap="round" stroke-linejoin="round"/>
</svg>
